<svg xml:space="preserve" viewBox="508.14970059880244 506.53293413173657 74.37125748502994 74.37125748502994" version="1.1" xmlns:xlink="http://www.w3.org/1999/xlink" xmlns="http://www.w3.org/2000/svg" style="max-height: 500px" width="74.37125748502994" height="74.37125748502994">
<defs>
</defs>
<rect fill="transparent" height="100%" width="100%" y="0" x="0"/>
<g id="fd5befe7-38a5-4cc1-925d-ada6cf887341" transform="matrix(1 0 0 1 540 540)">
</g>
<g id="10dcd905-b5d4-43c9-a1d8-bfa715da8eb9" transform="matrix(1 0 0 1 540 540)">
<rect height="1080" width="1080" ry="0" rx="0" y="-540" x="-540" style="stroke: none; stroke-width: 1; stroke-dasharray: none; stroke-linecap: butt; stroke-dashoffset: 0; stroke-linejoin: miter; stroke-miterlimit: 4; fill: rgb(0,0,0); fill-rule: nonzero; opacity: 1; visibility: hidden;"/>
</g>
<g transform="matrix(3.96 0 0 3.96 542.26 543.17)">
<path stroke-linecap="round" d="M 2.9806782 5.7244674 C 2.9421282 5.7244674 2.9032582 5.7218074 2.8640641999999996 5.7159474 C 2.5000892 5.6629414 2.2569032 5.3752882 2.3211532 5.0732521 C 3.1175302 1.3231057 5.8728852 0.36266312 7.4444366 0.12428392 C 10.07322 -0.27337018 12.744728 0.72702432 13.594432 1.9114632 C 13.783326 2.174879 13.679242 2.5152688 13.361205 2.6716136 C 13.043168 2.8287576 12.632612 2.7411299 12.444038 2.4779804 C 11.920724 1.7481933 9.8059399 0.89535471 7.6856947 1.2155018 C 6.1838545 1.4434937 4.2624622 2.3317566 3.6395602 5.2660868 C 3.5820602 5.5348293 3.2996782 5.7244674 2.9806782 5.7244674 Z M 8.358856 13.688894 C 8.082347599999999 13.688894 7.801141299999999 13.669454 7.514925699999999 13.628523999999999 C 4.949314399999999 13.266288999999999 2.7159521999999994 11.306106 2.319821199999999 9.069976899999999 C 2.260641199999999 8.7357214 2.500820199999999 8.420018899999999 2.855928199999999 8.364358399999999 C 3.212289199999999 8.3039864 3.5470431999999987 8.535167399999999 3.606541199999999 8.868834799999998 C 3.9087281999999988 10.574571999999998 5.710887099999999 12.132468999999999 7.708763099999999 12.415187999999999 C 8.794756399999999 12.566854999999999 10.821128999999999 12.449938 12.165154999999999 9.9222559 C 12.813994 8.7015591 11.984782 5.6570326 10.24807 4.2151673 C 9.2729314 3.4055906 8.2599014 3.3175356 7.2390437 3.95807 C 6.4436507 4.4566562 5.6144379 5.8870361 5.6482577 7.2199369 C 5.6745627 8.2751255 6.201275 9.0994271 7.2130524 9.6704599 C 7.556574 9.8639459 8.5351576 9.9873409 9.1047717 9.6097899 C 9.5503791 9.3144109 9.6831534 8.7260031 9.4996496 7.862533 C 9.3549758 7.1837135 8.6948626 5.9777418 8.3788973 5.9356282 C 8.3804873 5.9361971 8.265225 5.9697902 8.0723266 6.2419071 C 7.9170061 6.4604248 7.7663823 7.2773638 7.9699274 7.6348852 C 8.0078154 7.7020312 8.0410124 7.742083 8.1819279 7.742083 C 8.542046899999999 7.742083 8.8342127 8.0165553 8.8342127 8.3555235 C 8.8342127 8.6944912 8.5426732 8.9695529 8.1825543 8.9695529 C 7.5813125999999995 8.9695529 7.0975011 8.7018538 6.8203663 8.2147529 C 6.3547171 7.3963415 6.6080529 6.0970137 6.9872734 5.5616148 C 7.5753632 4.7326017 8.2063537 4.6522031 8.6325461 4.7326017 C 10.108406 5.007074 10.773843 7.5966008 10.779167 7.6222218 C 11.145862 9.3453333 10.479798 10.199675 9.8566367 10.613151 C 8.8047768 11.310523 7.2556404 11.125284 6.5422918 10.722704 C 4.7730132 9.7243529 4.3703062 8.2830769 4.3443152 7.2493865 C 4.2964052 5.3628284 5.4271766 3.6196911 6.5159876 2.9370433 C 8.0234757 1.9917027 9.6994373 2.1221656 11.112355 3.2948591 C 13.186639000000001 5.017087 14.307078 8.6388313 13.332878000000001 10.470908 C 12.228097000000002 12.548300999999999 10.445039000000001 13.688894 8.358856000000001 13.688894 z M 8.0478144 15.964445 C 7.3937817 15.964445 6.8079469 15.882385 6.3155025 15.771593 C 4.7066852 15.410202 3.2136842 14.519437 2.4183382 13.446318 C 2.2223432 13.181353999999999 2.3019082 12.824384 2.5959002 12.647834 C 2.8892782 12.471283 3.2867982 12.543395 3.4834072000000003 12.80753 C 4.5266652 14.215239 7.9654838 15.952010999999999 11.555754 13.799142999999999 C 11.849747 13.623145 12.246959 13.693876 12.44326 13.958839999999999 C 12.639255 14.223527999999998 12.559997000000001 14.580497 12.266005 14.757048 C 10.729688 15.677928999999999 9.2692496 15.964445 8.0478144 15.964445 z" transform="translate(-8, -8)" style="stroke: rgb(255,255,255); stroke-width: 0; stroke-dasharray: none; stroke-linecap: butt; stroke-dashoffset: 0; stroke-linejoin: miter; stroke-miterlimit: 4; fill: rgb(169,169,169); fill-rule: nonzero; opacity: 1;"/>
</g>
<g transform="matrix(0.33 0 0 0.33 554.57 560.51)">
<path stroke-linecap="round" d="M 48.854 0 C 21.839 0 0 22 0 49.217 C 0 70.973 13.993 89.389 33.405 95.907 C 35.832 96.39699999999999 36.721000000000004 94.848 36.721000000000004 93.545 C 36.721000000000004 92.404 36.641000000000005 88.493 36.641000000000005 84.418 C 23.051000000000005 87.352 20.221000000000004 78.551 20.221000000000004 78.551 C 18.037000000000003 72.84700000000001 14.801000000000004 71.381 14.801000000000004 71.381 C 10.353000000000003 68.366 15.125000000000004 68.366 15.125000000000004 68.366 C 20.059000000000005 68.692 22.648000000000003 73.418 22.648000000000003 73.418 C 27.015000000000004 80.914 34.05200000000001 78.796 36.883 77.492 C 37.287000000000006 74.31400000000001 38.582 72.114 39.957 70.89200000000001 C 29.118000000000002 69.751 17.714000000000002 65.51400000000001 17.714000000000002 46.60900000000001 C 17.714000000000002 41.23100000000001 19.654000000000003 36.83100000000001 22.728 33.409000000000006 C 22.243000000000002 32.187000000000005 20.544 27.134000000000007 23.214000000000002 20.371000000000006 C 23.214000000000002 20.371000000000006 27.339000000000002 19.067000000000007 36.64 25.423000000000005 C 40.62208885201989 24.345662604765938 44.72875258963664 23.79761430835893 48.85399999999996 23.793000000000017 C 52.979 23.793000000000006 57.184 24.364000000000008 61.067 25.423000000000005 C 70.369 19.067000000000007 74.494 20.371000000000006 74.494 20.371000000000006 C 77.164 27.134000000000007 75.464 32.187000000000005 74.979 33.409000000000006 C 78.134 36.831 79.994 41.23100000000001 79.994 46.60900000000001 C 79.994 65.51400000000001 68.59 69.66900000000001 57.67 70.89200000000001 C 59.45 72.44000000000001 60.986000000000004 75.373 60.986000000000004 80.01800000000001 C 60.986000000000004 86.61800000000001 60.906000000000006 91.91500000000002 60.906000000000006 93.54400000000001 C 60.906000000000006 94.84800000000001 61.79600000000001 96.397 64.22200000000001 95.90800000000002 C 83.63400000000001 89.38800000000002 97.62700000000001 70.97300000000001 97.62700000000001 49.21700000000001 C 97.707 22 75.788 0 48.854 0 z" transform="translate(-48.81, -48)" style="stroke: rgb(0,0,0); stroke-width: 0; stroke-dasharray: none; stroke-linecap: butt; stroke-dashoffset: 0; stroke-linejoin: miter; stroke-miterlimit: 4; fill: rgb(255,255,255); fill-rule: nonzero; opacity: 1;"/>
</g>
</svg>
